<svg width="23" height="25" viewBox="0 0 23 25" fill="none" xmlns="http://www.w3.org/2000/svg">
<path d="M19.6305 3.90228C15.1388 -0.715445 7.85739 -0.714336 3.36704 3.90482C-1.1233 8.52398 -1.12222 16.0119 3.36951 20.6297C7.86125 25.2474 15.1426 25.2463 19.633 20.6271C21.7895 18.4087 23.0007 15.4002 23 12.2634C22.9994 9.12717 21.7873 6.11961 19.6305 3.90228ZM17.4163 16.9135C17.4159 16.914 17.4154 16.9146 17.4148 16.9151V16.9112L16.8321 17.5064C16.0786 18.2912 14.9811 18.614 13.938 18.3579C12.887 18.0686 11.888 17.6081 10.9786 16.994C10.1338 16.4387 9.35095 15.7897 8.64415 15.0584C7.99381 14.3945 7.40956 13.6655 6.89997 12.8824C6.34258 12.0397 5.9014 11.1216 5.58897 10.1544C5.23081 9.01819 5.5276 7.7714 6.35565 6.93377L7.03797 6.2321C7.22767 6.03613 7.53593 6.03544 7.72644 6.23053C7.72693 6.23103 7.72747 6.23154 7.72797 6.2321L9.88228 8.44753C10.0728 8.64262 10.0735 8.95961 9.88381 9.15553C9.88332 9.15604 9.88282 9.15655 9.88228 9.1571L8.61728 10.458C8.25432 10.8272 8.20867 11.4139 8.50997 11.8377C8.96749 12.4835 9.47381 13.0911 10.0241 13.655C10.6377 14.2888 11.3048 14.8652 12.0175 15.3777C12.4293 15.6731 12.9875 15.6233 13.3438 15.2595L14.5666 13.9823C14.7563 13.7863 15.0646 13.7856 15.2551 13.9807C15.2556 13.9812 15.2561 13.9817 15.2566 13.9823L17.4148 16.2056C17.6054 16.4006 17.6061 16.7176 17.4163 16.9135Z" fill="#006400"/>
</svg>
